<svg width="16" height="17" viewBox="0 0 16 17" fill="none" xmlns="http://www.w3.org/2000/svg">
<path d="M16 8.06665C16 8.06665 13 2.56665 8 2.56665C3 2.56665 0 8.06665 0 8.06665C0 8.06665 3 13.5667 8 13.5667C13 13.5667 16 8.06665 16 8.06665ZM1.1727 8.06665C1.22963 7.97986 1.29454 7.88342 1.36727 7.77907C1.70216 7.29858 2.19631 6.65955 2.83211 6.02376C4.12103 4.73483 5.88062 3.56665 8 3.56665C10.1194 3.56665 11.879 4.73483 13.1679 6.02376C13.8037 6.65955 14.2978 7.29858 14.6327 7.77907C14.7055 7.88342 14.7704 7.97986 14.8273 8.06665C14.7704 8.15344 14.7055 8.24988 14.6327 8.35423C14.2978 8.83472 13.8037 9.47375 13.1679 10.1095C11.879 11.3985 10.1194 12.5667 8 12.5667C5.88062 12.5667 4.12103 11.3985 2.83211 10.1095C2.19631 9.47375 1.70216 8.83472 1.36727 8.35423C1.29454 8.24988 1.22963 8.15344 1.1727 8.06665Z" fill="black"/>
<path d="M8 5.56665C6.61929 5.56665 5.5 6.68594 5.5 8.06665C5.5 9.44736 6.61929 10.5667 8 10.5667C9.38071 10.5667 10.5 9.44736 10.5 8.06665C10.5 6.68594 9.38071 5.56665 8 5.56665ZM4.5 8.06665C4.5 6.13365 6.067 4.56665 8 4.56665C9.933 4.56665 11.5 6.13365 11.5 8.06665C11.5 9.99965 9.933 11.5667 8 11.5667C6.067 11.5667 4.5 9.99965 4.5 8.06665Z" fill="black"/>
</svg>
