<svg width="70" height="18" viewBox="0 0 70 18" fill="none" xmlns="http://www.w3.org/2000/svg">
<g filter="url(#filter0_iiii_314_11715)">
<path d="M0 4C0 1.79086 1.79086 0 4 0H66C68.2091 0 70 1.79086 70 4V14C70 16.2091 68.2091 18 66 18H4C1.79086 18 0 16.2091 0 14V4Z" fill="#1E1E1E"/>
<path d="M0.5 4C0.5 2.067 2.067 0.5 4 0.5H66C67.933 0.5 69.5 2.067 69.5 4V14C69.5 15.933 67.933 17.5 66 17.5H4C2.067 17.5 0.5 15.933 0.5 14V4Z" stroke="#1E1E1E"/>
<rect width="70" height="18" fill="white" fill-opacity="0.01"/>
<path d="M34.9999 3C38.3085 3 41 5.18425 41 7.86906C41 8.94358 40.5835 9.91125 39.714 10.8648C38.4552 12.3137 35.6404 14.0785 34.9999 14.3483C34.3776 14.6106 34.4495 14.2007 34.478 14.0382C34.4788 14.0335 34.4796 14.0291 34.4803 14.0249C34.4955 13.9347 34.5659 13.5113 34.5659 13.5113C34.5861 13.3581 34.607 13.1204 34.5465 12.9687C34.4792 12.8017 34.2133 12.715 34.0179 12.6729C31.1346 12.2917 29 10.276 29 7.86906C29 5.18425 31.6918 3 34.9999 3ZM32.7664 8.7647H31.6229V6.68847C31.6229 6.62394 31.5705 6.5716 31.5061 6.5716H31.0852C31.0206 6.5716 30.9683 6.62394 30.9683 6.68847V9.30266C30.9683 9.33406 30.9808 9.36247 31.001 9.3834L31.0017 9.38424L31.0026 9.38513L31.0043 9.38674C31.0253 9.40698 31.0536 9.4194 31.085 9.4194H32.7664C32.8309 9.4194 32.883 9.36695 32.883 9.30243V8.88157C32.883 8.81704 32.8309 8.7647 32.7664 8.7647ZM33.36 6.57167C33.2955 6.57167 33.2431 6.62401 33.2431 6.6883V9.30272C33.2431 9.36714 33.2955 9.41936 33.36 9.41936H33.7809C33.8454 9.41936 33.8978 9.36714 33.8978 9.30272V6.6883C33.8978 6.62401 33.8454 6.57167 33.7809 6.57167H33.36ZM36.2568 6.57167C36.1923 6.57167 36.14 6.62401 36.14 6.6883V8.24154L34.9419 6.62355C34.9391 6.61941 34.936 6.6155 34.9328 6.6117L34.932 6.61101C34.9297 6.60836 34.9274 6.60606 34.925 6.60376L34.9228 6.60181C34.9209 6.59997 34.9188 6.59824 34.9166 6.59663C34.9159 6.59596 34.9152 6.59541 34.9144 6.59484L34.9136 6.59422L34.9097 6.59152L34.9075 6.59008C34.9064 6.58927 34.9052 6.58858 34.904 6.58801C34.9019 6.58674 34.8998 6.58547 34.8977 6.58444L34.8964 6.58376L34.8941 6.58271C34.8919 6.58168 34.8897 6.58064 34.8874 6.57984L34.8836 6.57846C34.8813 6.57765 34.879 6.57685 34.8766 6.57627L34.8745 6.57567L34.8726 6.57512L34.8659 6.57363L34.8609 6.57305L34.8592 6.57274L34.8563 6.57241L34.8547 6.57225L34.8507 6.57199L34.8487 6.5719L34.8446 6.57167H34.4239C34.3593 6.57167 34.3069 6.62401 34.3069 6.6883V9.30272C34.3069 9.36714 34.3593 9.41936 34.4239 9.41936H34.8446C34.9092 9.41936 34.9616 9.36714 34.9616 9.30272V7.74994L36.1611 9.37001C36.1694 9.38174 36.1796 9.39129 36.1908 9.39888L36.192 9.3998L36.1992 9.40417C36.2004 9.40486 36.2014 9.40532 36.2025 9.4059C36.2043 9.40693 36.2062 9.40785 36.2081 9.40866L36.2138 9.41107L36.2173 9.41234C36.22 9.41337 36.2226 9.41418 36.2252 9.41498C36.2258 9.41498 36.2263 9.41522 36.2269 9.41533C36.2365 9.41786 36.2465 9.41936 36.2568 9.41936H36.6777C36.7423 9.41936 36.7945 9.36714 36.7945 9.30272V6.6883C36.7945 6.62401 36.7423 6.57167 36.6777 6.57167H36.2568ZM39.1185 7.10944V6.68858C39.1185 6.62405 39.0664 6.5716 39.0018 6.5716H37.3203C37.2888 6.5716 37.2604 6.58426 37.2394 6.60462L37.2388 6.60514L37.238 6.60588L37.2361 6.60795C37.2161 6.62888 37.2037 6.65718 37.2037 6.68847V9.30266C37.2037 9.33406 37.2162 9.36247 37.2364 9.3834C37.2368 9.38398 37.2374 9.38467 37.238 9.38513C37.2384 9.3857 37.2391 9.38628 37.2397 9.38674C37.2606 9.40687 37.2891 9.4194 37.3203 9.4194H39.0018C39.0664 9.4194 39.1185 9.36695 39.1185 9.30254V8.88157C39.1185 8.81715 39.0664 8.7647 39.0018 8.7647H37.8584V8.32279H39.0018C39.0664 8.32279 39.1185 8.27046 39.1185 8.20593V7.78507C39.1185 7.72055 39.0664 7.6681 39.0018 7.6681H37.8584V7.2263H39.0018C39.0664 7.2263 39.1185 7.17408 39.1185 7.10944Z" fill="white"/>
</g>
<defs>
<filter id="filter0_iiii_314_11715" x="0" y="-1" width="70" height="20" filterUnits="userSpaceOnUse" color-interpolation-filters="sRGB">
<feFlood flood-opacity="0" result="BackgroundImageFix"/>
<feBlend mode="normal" in="SourceGraphic" in2="BackgroundImageFix" result="shape"/>
<feColorMatrix in="SourceAlpha" type="matrix" values="0 0 0 0 0 0 0 0 0 0 0 0 0 0 0 0 0 0 127 0" result="hardAlpha"/>
<feOffset dy="1"/>
<feComposite in2="hardAlpha" operator="arithmetic" k2="-1" k3="1"/>
<feColorMatrix type="matrix" values="0 0 0 0 1 0 0 0 0 1 0 0 0 0 1 0 0 0 0.15 0"/>
<feBlend mode="normal" in2="shape" result="effect1_innerShadow_314_11715"/>
<feColorMatrix in="SourceAlpha" type="matrix" values="0 0 0 0 0 0 0 0 0 0 0 0 0 0 0 0 0 0 127 0" result="hardAlpha"/>
<feOffset dy="-1"/>
<feComposite in2="hardAlpha" operator="arithmetic" k2="-1" k3="1"/>
<feColorMatrix type="matrix" values="0 0 0 0 1 0 0 0 0 1 0 0 0 0 1 0 0 0 0.15 0"/>
<feBlend mode="normal" in2="effect1_innerShadow_314_11715" result="effect2_innerShadow_314_11715"/>
<feColorMatrix in="SourceAlpha" type="matrix" values="0 0 0 0 0 0 0 0 0 0 0 0 0 0 0 0 0 0 127 0" result="hardAlpha"/>
<feOffset dy="1"/>
<feGaussianBlur stdDeviation="0.5"/>
<feComposite in2="hardAlpha" operator="arithmetic" k2="-1" k3="1"/>
<feColorMatrix type="matrix" values="0 0 0 0 0 0 0 0 0 0 0 0 0 0 0 0 0 0 0.075 0"/>
<feBlend mode="normal" in2="effect2_innerShadow_314_11715" result="effect3_innerShadow_314_11715"/>
<feColorMatrix in="SourceAlpha" type="matrix" values="0 0 0 0 0 0 0 0 0 0 0 0 0 0 0 0 0 0 127 0" result="hardAlpha"/>
<feOffset dy="-2"/>
<feGaussianBlur stdDeviation="0.5"/>
<feComposite in2="hardAlpha" operator="arithmetic" k2="-1" k3="1"/>
<feColorMatrix type="matrix" values="0 0 0 0 0 0 0 0 0 0 0 0 0 0 0 0 0 0 0.075 0"/>
<feBlend mode="normal" in2="effect3_innerShadow_314_11715" result="effect4_innerShadow_314_11715"/>
</filter>
</defs>
</svg>
