<svg width="16" height="16" viewBox="0 0 16 16" fill="none" xmlns="http://www.w3.org/2000/svg">
<path d="M8.00075 0.00195312C5.82806 0.00195312 5.55539 0.0114534 4.70205 0.0502871C3.85037 0.0892875 3.26903 0.224122 2.76036 0.421958C2.23419 0.626293 1.78785 0.899629 1.34318 1.34447C0.898176 1.78914 0.62484 2.23548 0.419838 2.76148C0.221502 3.27032 0.0865008 3.85183 0.0481671 4.70317C0.01 5.55651 0 5.82935 0 8.00204C0 10.1747 0.00966692 10.4466 0.048334 11.2999C0.0875011 12.1516 0.222336 12.7329 0.420004 13.2416C0.624507 13.7678 0.897843 14.2141 1.34268 14.6588C1.78719 15.1038 2.23352 15.3778 2.75936 15.5821C3.26837 15.78 3.84987 15.9148 4.70138 15.9538C5.55472 15.9926 5.82723 16.0021 7.99975 16.0021C10.1726 16.0021 10.4444 15.9926 11.2978 15.9538C12.1495 15.9148 12.7315 15.78 13.2405 15.5821C13.7665 15.3778 14.2121 15.1038 14.6567 14.6588C15.1017 14.2141 15.375 13.7678 15.58 13.2418C15.7767 12.7329 15.9117 12.1514 15.9517 11.3001C15.99 10.4467 16 10.1747 16 8.00204C16 5.82935 15.99 5.55668 15.9517 4.70334C15.9117 3.85166 15.7767 3.27032 15.58 2.76165C15.375 2.23548 15.1017 1.78914 14.6567 1.34447C14.2116 0.899463 13.7666 0.626126 13.24 0.421958C12.73 0.224122 12.1483 0.0892875 11.2966 0.0502871C10.4433 0.0114534 10.1716 0.00195312 7.99825 0.00195312H8.00075ZM7.28308 1.44363C7.49608 1.4433 7.73375 1.44363 8.00075 1.44363C10.1368 1.44363 10.3899 1.4513 11.2335 1.48964C12.0135 1.5253 12.4368 1.65564 12.7188 1.76514C13.0921 1.91014 13.3583 2.08347 13.6381 2.36348C13.9181 2.64348 14.0915 2.91015 14.2368 3.28349C14.3463 3.56516 14.4768 3.98849 14.5123 4.7685C14.5507 5.61184 14.559 5.86518 14.559 8.0002C14.559 10.1352 14.5507 10.3886 14.5123 11.2319C14.4767 12.0119 14.3463 12.4352 14.2368 12.7169C14.0918 13.0903 13.9181 13.3561 13.6381 13.6359C13.3581 13.9159 13.0923 14.0893 12.7188 14.2343C12.4371 14.3443 12.0135 14.4743 11.2335 14.5099C10.3901 14.5483 10.1368 14.5566 8.00075 14.5566C5.86456 14.5566 5.61139 14.5483 4.76805 14.5099C3.98804 14.4739 3.5647 14.3436 3.28253 14.2341C2.9092 14.0891 2.64253 13.9158 2.36252 13.6358C2.08252 13.3558 1.90919 13.0898 1.76385 12.7163C1.65435 12.4346 1.52385 12.0112 1.48835 11.2312C1.45002 10.3879 1.44235 10.1346 1.44235 7.9982C1.44235 5.86185 1.45002 5.60985 1.48835 4.7665C1.52402 3.98649 1.65435 3.56316 1.76385 3.28115C1.90885 2.90782 2.08252 2.64115 2.36252 2.36114C2.64253 2.08114 2.9092 1.90781 3.28253 1.76247C3.56454 1.65247 3.98804 1.52247 4.76805 1.48664C5.50606 1.4533 5.79206 1.4433 7.28308 1.44163V1.44363ZM12.2711 2.77198C11.7411 2.77198 11.3111 3.20149 11.3111 3.73166C11.3111 4.26166 11.7411 4.69167 12.2711 4.69167C12.8011 4.69167 13.2311 4.26166 13.2311 3.73166C13.2311 3.20165 12.8011 2.77165 12.2711 2.77165V2.77198ZM8.00075 3.89366C5.73189 3.89366 3.89237 5.73318 3.89237 8.00204C3.89237 10.2709 5.73189 12.1096 8.00075 12.1096C10.2696 12.1096 12.1085 10.2709 12.1085 8.00204C12.1085 5.73318 10.2694 3.89366 8.00058 3.89366H8.00075ZM8.00075 5.33534C9.47343 5.33534 10.6674 6.52919 10.6674 8.00204C10.6674 9.47472 9.47343 10.6687 8.00075 10.6687C6.5279 10.6687 5.33406 9.47472 5.33406 8.00204C5.33406 6.52919 6.5279 5.33534 8.00075 5.33534Z" fill="white"/>
</svg>
