<svg width="17" height="17" viewBox="0 0 17 17" fill="none" xmlns="http://www.w3.org/2000/svg">
<path d="M16.8008 8.60791C16.8008 13.0262 13.2191 16.6079 8.80078 16.6079C4.3825 16.6079 0.800781 13.0262 0.800781 8.60791C0.800781 4.18963 4.3825 0.60791 8.80078 0.60791C13.2191 0.60791 16.8008 4.18963 16.8008 8.60791ZM6.15433 5.25436C5.95907 5.05909 5.64249 5.05909 5.44723 5.25436C5.25197 5.44962 5.25197 5.7662 5.44723 5.96146L8.09367 8.60791L5.44723 11.2544C5.25197 11.4496 5.25197 11.7662 5.44723 11.9615C5.64249 12.1567 5.95907 12.1567 6.15433 11.9615L8.80078 9.31502L11.4472 11.9615C11.6425 12.1567 11.9591 12.1567 12.1543 11.9615C12.3496 11.7662 12.3496 11.4496 12.1543 11.2544L9.50789 8.60791L12.1543 5.96146C12.3496 5.7662 12.3496 5.44962 12.1543 5.25436C11.9591 5.05909 11.6425 5.05909 11.4472 5.25436L8.80078 7.9008L6.15433 5.25436Z" fill="#529AD6"/>
</svg>
