<svg width="38" height="39" viewBox="0 0 38 39" fill="none" xmlns="http://www.w3.org/2000/svg">
<rect x="0.5" y="1" width="37" height="37" rx="18.5" fill="#529AD6"/>
<rect x="0.5" y="1" width="37" height="37" rx="18.5" stroke="#529AD6"/>
<path d="M22.7422 21.8439C23.5329 20.7673 24 19.4382 24 18C24 14.4101 21.0899 11.5 17.5 11.5C13.9101 11.5 11 14.4101 11 18C11 21.5899 13.9101 24.5 17.5 24.5C18.9386 24.5 20.268 24.0327 21.3448 23.2415L21.3439 23.2422C21.3734 23.2822 21.4062 23.3204 21.4424 23.3566L25.2929 27.2071C25.6834 27.5976 26.3166 27.5976 26.7071 27.2071C27.0976 26.8166 27.0976 26.1834 26.7071 25.7929L22.8566 21.9424C22.8204 21.9062 22.7822 21.8734 22.7422 21.8439ZM23 18C23 21.0376 20.5376 23.5 17.5 23.5C14.4624 23.5 12 21.0376 12 18C12 14.9624 14.4624 12.5 17.5 12.5C20.5376 12.5 23 14.9624 23 18Z" fill="white"/>
</svg>
