<svg width="16" height="17" viewBox="0 0 16 17" fill="none" xmlns="http://www.w3.org/2000/svg">
<rect width="16" height="16" transform="translate(0 0.027832)" fill="white" fill-opacity="0.01"/>
<path d="M10.7904 12.9395L9.17617 11.3253C8.80858 11.4565 8.41263 11.5279 8 11.5279C6.067 11.5279 4.5 9.96087 4.5 8.02787C4.5 7.61524 4.5714 7.21929 4.70253 6.8517L2.64112 4.79029C0.938717 6.30689 0 8.02787 0 8.02787C0 8.02787 3 13.5279 8 13.5279C9.01539 13.5279 9.9483 13.301 10.7904 12.9395Z" fill="black"/>
<path d="M5.20967 3.11621C6.05172 2.75469 6.98462 2.52787 8 2.52787C13 2.52787 16 8.02787 16 8.02787C16 8.02787 15.0613 9.74884 13.3589 11.2654L11.2975 9.20401C11.4286 8.83643 11.5 8.44049 11.5 8.02787C11.5 6.09487 9.933 4.52787 8 4.52787C7.58738 4.52787 7.19144 4.59927 6.82386 4.73039L5.20967 3.11621Z" fill="black"/>
<path d="M5.52485 7.67402C5.50847 7.78962 5.5 7.90775 5.5 8.02787C5.5 9.40858 6.61929 10.5279 8 10.5279C8.12012 10.5279 8.23825 10.5194 8.35385 10.503L5.52485 7.67402Z" fill="black"/>
<path d="M10.4752 8.38169L7.64618 5.55271C7.76176 5.53634 7.87989 5.52787 8 5.52787C9.38071 5.52787 10.5 6.64716 10.5 8.02787C10.5 8.14798 10.4915 8.2661 10.4752 8.38169Z" fill="black"/>
<path d="M13.6464 14.3814L1.64645 2.38142L2.35355 1.67432L14.3536 13.6743L13.6464 14.3814Z" fill="black"/>
</svg>
