<svg width="12" height="12" viewBox="0 0 12 12" fill="none" xmlns="http://www.w3.org/2000/svg">
<path d="M5.99994 0C9.30851 0 12 2.18425 12 4.86906C12 5.94358 11.5835 6.91125 10.714 7.86477C9.45517 9.31369 6.64038 11.0785 5.99994 11.3483C5.3776 11.6106 5.44947 11.2007 5.47795 11.0382C5.47877 11.0335 5.47955 11.0291 5.48028 11.0249C5.49546 10.9347 5.56585 10.5113 5.56585 10.5113C5.5861 10.3581 5.60703 10.1204 5.54653 9.96873C5.47924 9.80172 5.21332 9.715 5.0179 9.6729C2.13456 9.29172 0 7.27598 0 4.86906C0 2.18425 2.69183 0 5.99994 0ZM3.76641 5.7647H2.62287V3.68847C2.62287 3.62394 2.57054 3.5716 2.50613 3.5716H2.08515C2.02063 3.5716 1.96829 3.62394 1.96829 3.68847V6.30266C1.96829 6.33406 1.98083 6.36247 2.00096 6.3834L2.00165 6.38424L2.00257 6.38513L2.00429 6.38674C2.02534 6.40698 2.05364 6.4194 2.08504 6.4194H3.76641C3.83094 6.4194 3.88304 6.36695 3.88304 6.30243V5.88157C3.88304 5.81704 3.83094 5.7647 3.76641 5.7647ZM4.36004 3.57167C4.29551 3.57167 4.24307 3.62401 4.24307 3.6883V6.30272C4.24307 6.36714 4.29551 6.41936 4.36004 6.41936H4.7809C4.84543 6.41936 4.89776 6.36714 4.89776 6.30272V3.6883C4.89776 3.62401 4.84543 3.57167 4.7809 3.57167H4.36004ZM7.25683 3.57167C7.1923 3.57167 7.13997 3.62401 7.13997 3.6883V5.24154L5.94191 3.62355C5.93915 3.61941 5.93604 3.6155 5.93282 3.6117L5.93202 3.61101C5.92972 3.60836 5.92742 3.60606 5.925 3.60376L5.92282 3.60181C5.92086 3.59997 5.91879 3.59824 5.91661 3.59663C5.91593 3.59596 5.91519 3.59541 5.91444 3.59484L5.91362 3.59422L5.90972 3.59152L5.90752 3.59008C5.90637 3.58927 5.90522 3.58858 5.90395 3.58801C5.90188 3.58674 5.89981 3.58547 5.89774 3.58444L5.89635 3.58376L5.89406 3.58271C5.89187 3.58168 5.88969 3.58064 5.88739 3.57984L5.88359 3.57846C5.88129 3.57765 5.87899 3.57685 5.87658 3.57627L5.87449 3.57567L5.87255 3.57512L5.86588 3.57363L5.86094 3.57305L5.85924 3.57274L5.85628 3.57241L5.85472 3.57225L5.85073 3.57199L5.84874 3.5719L5.8446 3.57167H5.42386C5.35933 3.57167 5.30688 3.62401 5.30688 3.6883V6.30272C5.30688 6.36714 5.35933 6.41936 5.42386 6.41936H5.8446C5.90924 6.41936 5.96158 6.36714 5.96158 6.30272V4.74994L7.16113 6.37001C7.16941 6.38174 7.17965 6.39129 7.19081 6.39888L7.19196 6.3998L7.1992 6.40417C7.20035 6.40486 7.20139 6.40532 7.20254 6.4059C7.20426 6.40693 7.20622 6.40785 7.20806 6.40866L7.21381 6.41107L7.21726 6.41234C7.22002 6.41337 7.22255 6.41418 7.2252 6.41498C7.22577 6.41498 7.22635 6.41522 7.22692 6.41533C7.23647 6.41786 7.24648 6.41936 7.25683 6.41936H7.67769C7.74233 6.41936 7.79455 6.36714 7.79455 6.30272V3.6883C7.79455 3.62401 7.74233 3.57167 7.67769 3.57167H7.25683ZM10.1185 4.10944V3.68858C10.1185 3.62405 10.0664 3.5716 10.0018 3.5716H8.32034C8.28883 3.5716 8.26042 3.58426 8.23937 3.60462L8.23877 3.60514L8.23799 3.60588L8.23615 3.60795C8.21613 3.62888 8.20371 3.65718 8.20371 3.68847V6.30266C8.20371 6.33406 8.21625 6.36247 8.23638 6.3834C8.23684 6.38398 8.23741 6.38467 8.23799 6.38513C8.23845 6.3857 8.23914 6.38628 8.23971 6.38674C8.26065 6.40687 8.28906 6.4194 8.32034 6.4194H10.0018C10.0664 6.4194 10.1185 6.36695 10.1185 6.30254V5.88157C10.1185 5.81715 10.0664 5.7647 10.0018 5.7647H8.85841V5.3228H10.0018C10.0664 5.3228 10.1185 5.27046 10.1185 5.20593V4.78507C10.1185 4.72055 10.0664 4.6681 10.0018 4.6681H8.85841V4.2263H10.0018C10.0664 4.2263 10.1185 4.17408 10.1185 4.10944Z" fill="white"/>
</svg>
