<svg width="60" height="18" viewBox="0 0 60 18" fill="none" xmlns="http://www.w3.org/2000/svg">
<g filter="url(#filter0_iiii_314_11719)">
<path d="M0 4C0 1.79086 1.79086 0 4 0H56C58.2091 0 60 1.79086 60 4V14C60 16.2091 58.2091 18 56 18H4C1.79086 18 0 16.2091 0 14V4Z" fill="#1E1E1E"/>
<path d="M0.5 4C0.5 2.067 2.067 0.5 4 0.5H56C57.933 0.5 59.5 2.067 59.5 4V14C59.5 15.933 57.933 17.5 56 17.5H4C2.067 17.5 0.5 15.933 0.5 14V4Z" stroke="#1E1E1E"/>
<rect width="60" height="18" fill="white" fill-opacity="0.01"/>
<path d="M33.4507 3.5625H35.2908L31.2708 8.16904L36 14.4375H32.297L29.3967 10.6357L26.0782 14.4375H24.237L28.5368 9.51029L24 3.5625H27.797L30.4186 7.03748L33.4507 3.5625ZM32.8049 13.3333H33.8245L27.2429 4.60873H26.1488L32.8049 13.3333Z" fill="white"/>
</g>
<defs>
<filter id="filter0_iiii_314_11719" x="0" y="-1" width="60" height="20" filterUnits="userSpaceOnUse" color-interpolation-filters="sRGB">
<feFlood flood-opacity="0" result="BackgroundImageFix"/>
<feBlend mode="normal" in="SourceGraphic" in2="BackgroundImageFix" result="shape"/>
<feColorMatrix in="SourceAlpha" type="matrix" values="0 0 0 0 0 0 0 0 0 0 0 0 0 0 0 0 0 0 127 0" result="hardAlpha"/>
<feOffset dy="1"/>
<feComposite in2="hardAlpha" operator="arithmetic" k2="-1" k3="1"/>
<feColorMatrix type="matrix" values="0 0 0 0 1 0 0 0 0 1 0 0 0 0 1 0 0 0 0.15 0"/>
<feBlend mode="normal" in2="shape" result="effect1_innerShadow_314_11719"/>
<feColorMatrix in="SourceAlpha" type="matrix" values="0 0 0 0 0 0 0 0 0 0 0 0 0 0 0 0 0 0 127 0" result="hardAlpha"/>
<feOffset dy="-1"/>
<feComposite in2="hardAlpha" operator="arithmetic" k2="-1" k3="1"/>
<feColorMatrix type="matrix" values="0 0 0 0 1 0 0 0 0 1 0 0 0 0 1 0 0 0 0.15 0"/>
<feBlend mode="normal" in2="effect1_innerShadow_314_11719" result="effect2_innerShadow_314_11719"/>
<feColorMatrix in="SourceAlpha" type="matrix" values="0 0 0 0 0 0 0 0 0 0 0 0 0 0 0 0 0 0 127 0" result="hardAlpha"/>
<feOffset dy="1"/>
<feGaussianBlur stdDeviation="0.5"/>
<feComposite in2="hardAlpha" operator="arithmetic" k2="-1" k3="1"/>
<feColorMatrix type="matrix" values="0 0 0 0 0 0 0 0 0 0 0 0 0 0 0 0 0 0 0.075 0"/>
<feBlend mode="normal" in2="effect2_innerShadow_314_11719" result="effect3_innerShadow_314_11719"/>
<feColorMatrix in="SourceAlpha" type="matrix" values="0 0 0 0 0 0 0 0 0 0 0 0 0 0 0 0 0 0 127 0" result="hardAlpha"/>
<feOffset dy="-2"/>
<feGaussianBlur stdDeviation="0.5"/>
<feComposite in2="hardAlpha" operator="arithmetic" k2="-1" k3="1"/>
<feColorMatrix type="matrix" values="0 0 0 0 0 0 0 0 0 0 0 0 0 0 0 0 0 0 0.075 0"/>
<feBlend mode="normal" in2="effect3_innerShadow_314_11719" result="effect4_innerShadow_314_11719"/>
</filter>
</defs>
</svg>
