<svg width="16" height="16" viewBox="0 0 16 16" fill="none" xmlns="http://www.w3.org/2000/svg">
<path d="M3.5 0.0078125C3.77614 0.0078125 4 0.23167 4 0.507812V1.00781H12V0.507812C12 0.23167 12.2239 0.0078125 12.5 0.0078125C12.7761 0.0078125 13 0.23167 13 0.507812V1.00781H14C15.1046 1.00781 16 1.90324 16 3.00781V14.0078C16 15.1124 15.1046 16.0078 14 16.0078H2C0.895431 16.0078 0 15.1124 0 14.0078V3.00781C0 1.90324 0.895431 1.00781 2 1.00781H3V0.507812C3 0.23167 3.22386 0.0078125 3.5 0.0078125ZM1 4.00781V14.0078C1 14.5601 1.44772 15.0078 2 15.0078H14C14.5523 15.0078 15 14.5601 15 14.0078V4.00781H1Z" fill="black"/>
</svg>
