<?xml version="1.0" encoding="UTF-8"?>
<svg xmlns="http://www.w3.org/2000/svg" version="1.1" viewBox="0 0 11 14">
  <defs>
    <style>
      .cls-1 {
        fill-rule: evenodd;
      }
    </style>
  </defs>
  <!-- Generator: Adobe Illustrator 28.7.3, SVG Export Plug-In . SVG Version: 1.2.0 Build 164)  -->
  <g>
    <g id="Layer_1">
      <path class="cls-1" d="M6.9.6c.2.2.2.5,0,.7L1.2,7l5.6,5.6c.2.2.2.5,0,.7-.2.2-.5.2-.7,0L.1,7.4c-.2-.2-.2-.5,0-.7L6.1.6c.2-.2.5-.2.7,0Z"/>
      <path class="cls-1" d="M10.9.6c.2.2.2.5,0,.7l-5.6,5.6,5.6,5.6c.2.2.2.5,0,.7-.2.2-.5.2-.7,0l-6-6c-.2-.2-.2-.5,0-.7L10.1.6c.2-.2.5-.2.7,0Z"/>
    </g>
  </g>
</svg>