<svg width="16" height="17" viewBox="0 0 16 17" fill="none" xmlns="http://www.w3.org/2000/svg">
<rect width="16" height="16" transform="translate(0 0.0258789)" fill="white" fill-opacity="0.01"/>
<path d="M10.5 8.02588C10.5 9.40659 9.38071 10.5259 8 10.5259C6.61929 10.5259 5.5 9.40659 5.5 8.02588C5.5 6.64517 6.61929 5.52588 8 5.52588C9.38071 5.52588 10.5 6.64517 10.5 8.02588Z" fill="black"/>
<path d="M0 8.02588C0 8.02588 3 2.52588 8 2.52588C13 2.52588 16 8.02588 16 8.02588C16 8.02588 13 13.5259 8 13.5259C3 13.5259 0 8.02588 0 8.02588ZM8 11.5259C9.933 11.5259 11.5 9.95888 11.5 8.02588C11.5 6.09288 9.933 4.52588 8 4.52588C6.067 4.52588 4.5 6.09288 4.5 8.02588C4.5 9.95888 6.067 11.5259 8 11.5259Z" fill="black"/>
</svg>
