<svg width="60" height="18" viewBox="0 0 60 18" fill="none" xmlns="http://www.w3.org/2000/svg">
<g filter="url(#filter0_iiii_314_11723)">
<path d="M0 4C0 1.79086 1.79086 0 4 0H56C58.2091 0 60 1.79086 60 4V14C60 16.2091 58.2091 18 56 18H4C1.79086 18 0 16.2091 0 14V4Z" fill="#1E1E1E"/>
<path d="M0.5 4C0.5 2.067 2.067 0.5 4 0.5H56C57.933 0.5 59.5 2.067 59.5 4V14C59.5 15.933 57.933 17.5 56 17.5H4C2.067 17.5 0.5 15.933 0.5 14V4Z" stroke="#1E1E1E"/>
<rect width="60" height="18" fill="white" fill-opacity="0.01"/>
<path d="M36 9.03642C36 5.70232 33.3135 2.99951 29.9996 2.99951C26.6857 2.99951 23.9993 5.70232 23.9993 9.03642C23.9993 12.0496 26.1935 14.5471 29.0621 15V10.7815H27.5385V9.03642H29.0621V7.70641C29.0621 6.19341 29.9579 5.35768 31.3285 5.35768C31.985 5.35768 32.6717 5.47559 32.6717 5.47559V6.96123H31.915C31.1696 6.96123 30.9372 7.42658 30.9372 7.90399V9.03642H32.6013L32.3353 10.7815H30.9372V15C33.8057 14.5471 36 12.0496 36 9.03642Z" fill="white"/>
</g>
<defs>
<filter id="filter0_iiii_314_11723" x="0" y="-1" width="60" height="20" filterUnits="userSpaceOnUse" color-interpolation-filters="sRGB">
<feFlood flood-opacity="0" result="BackgroundImageFix"/>
<feBlend mode="normal" in="SourceGraphic" in2="BackgroundImageFix" result="shape"/>
<feColorMatrix in="SourceAlpha" type="matrix" values="0 0 0 0 0 0 0 0 0 0 0 0 0 0 0 0 0 0 127 0" result="hardAlpha"/>
<feOffset dy="1"/>
<feComposite in2="hardAlpha" operator="arithmetic" k2="-1" k3="1"/>
<feColorMatrix type="matrix" values="0 0 0 0 1 0 0 0 0 1 0 0 0 0 1 0 0 0 0.15 0"/>
<feBlend mode="normal" in2="shape" result="effect1_innerShadow_314_11723"/>
<feColorMatrix in="SourceAlpha" type="matrix" values="0 0 0 0 0 0 0 0 0 0 0 0 0 0 0 0 0 0 127 0" result="hardAlpha"/>
<feOffset dy="-1"/>
<feComposite in2="hardAlpha" operator="arithmetic" k2="-1" k3="1"/>
<feColorMatrix type="matrix" values="0 0 0 0 1 0 0 0 0 1 0 0 0 0 1 0 0 0 0.15 0"/>
<feBlend mode="normal" in2="effect1_innerShadow_314_11723" result="effect2_innerShadow_314_11723"/>
<feColorMatrix in="SourceAlpha" type="matrix" values="0 0 0 0 0 0 0 0 0 0 0 0 0 0 0 0 0 0 127 0" result="hardAlpha"/>
<feOffset dy="1"/>
<feGaussianBlur stdDeviation="0.5"/>
<feComposite in2="hardAlpha" operator="arithmetic" k2="-1" k3="1"/>
<feColorMatrix type="matrix" values="0 0 0 0 0 0 0 0 0 0 0 0 0 0 0 0 0 0 0.075 0"/>
<feBlend mode="normal" in2="effect2_innerShadow_314_11723" result="effect3_innerShadow_314_11723"/>
<feColorMatrix in="SourceAlpha" type="matrix" values="0 0 0 0 0 0 0 0 0 0 0 0 0 0 0 0 0 0 127 0" result="hardAlpha"/>
<feOffset dy="-2"/>
<feGaussianBlur stdDeviation="0.5"/>
<feComposite in2="hardAlpha" operator="arithmetic" k2="-1" k3="1"/>
<feColorMatrix type="matrix" values="0 0 0 0 0 0 0 0 0 0 0 0 0 0 0 0 0 0 0.075 0"/>
<feBlend mode="normal" in2="effect3_innerShadow_314_11723" result="effect4_innerShadow_314_11723"/>
</filter>
</defs>
</svg>
