<svg width="12" height="12" viewBox="0 0 12 12" fill="none" xmlns="http://www.w3.org/2000/svg">
<rect width="12" height="12" transform="translate(0 0.00195312)" fill="white" fill-opacity="0.01"/>
<path d="M6 11.252C3.10051 11.252 0.75 8.90145 0.75 6.00195C0.75 3.10246 3.10051 0.751953 6 0.751953C8.8995 0.751953 11.25 3.10246 11.25 6.00195C11.25 8.90145 8.8995 11.252 6 11.252ZM6 12.002C9.31371 12.002 12 9.31566 12 6.00195C12 2.68824 9.31371 0.00195312 6 0.00195312C2.68629 0.00195312 0 2.68824 0 6.00195C0 9.31566 2.68629 12.002 6 12.002Z" fill="#DC3545"/>
<path d="M5.25116 8.25195C5.25116 7.83774 5.58694 7.50195 6.00116 7.50195C6.41537 7.50195 6.75116 7.83774 6.75116 8.25195C6.75116 8.66617 6.41537 9.00195 6.00116 9.00195C5.58694 9.00195 5.25116 8.66617 5.25116 8.25195Z" fill="#DC3545"/>
<path d="M5.32463 3.74823C5.28467 3.34867 5.59844 3.00195 6 3.00195C6.40156 3.00195 6.71533 3.34867 6.67537 3.74823L6.41231 6.37881C6.39113 6.59064 6.21288 6.75195 6 6.75195C5.78712 6.75195 5.60887 6.59064 5.58769 6.37881L5.32463 3.74823Z" fill="#DC3545"/>
</svg>
