<svg width="32" height="32" viewBox="0 0 32 32" fill="none" xmlns="http://www.w3.org/2000/svg">
<path d="M15.9998 0C24.8227 0 32 5.82465 32 12.9842C32 15.8496 30.8894 18.43 28.5705 20.9727C25.2138 24.8365 17.7077 29.5425 15.9998 30.2621C14.3403 30.9616 14.5319 29.8684 14.6079 29.4352C14.61 29.4228 14.6121 29.4109 14.6141 29.3996C14.6546 29.1591 14.8423 28.0301 14.8423 28.0301C14.8963 27.6215 14.9521 26.9879 14.7907 26.5833C14.6113 26.1379 13.9022 25.9067 13.3811 25.7944C5.69215 24.7779 0 19.4026 0 12.9842C0 5.82465 7.17822 0 15.9998 0ZM10.0438 15.3725H6.99433V9.83591C6.99433 9.66384 6.85477 9.52428 6.68301 9.52428H5.56041C5.38833 9.52428 5.24878 9.66384 5.24878 9.83591V16.8071C5.24878 16.8908 5.28221 16.9666 5.33588 17.0224L5.33774 17.0246L5.34018 17.027L5.34478 17.0313C5.40091 17.0853 5.47636 17.1184 5.5601 17.1184H10.0438C10.2158 17.1184 10.3548 16.9785 10.3548 16.8065V15.6842C10.3548 15.5121 10.2158 15.3725 10.0438 15.3725ZM11.6268 9.52446C11.4547 9.52446 11.3148 9.66402 11.3148 9.83547V16.8073C11.3148 16.979 11.4547 17.1183 11.6268 17.1183H12.7491C12.9211 17.1183 13.0607 16.979 13.0607 16.8073V9.83547C13.0607 9.66402 12.9211 9.52446 12.7491 9.52446H11.6268ZM19.3515 9.52446C19.1795 9.52446 19.0399 9.66402 19.0399 9.83547V13.9774L15.8451 9.66279C15.8377 9.65175 15.8295 9.64132 15.8209 9.6312L15.8187 9.62936C15.8126 9.6223 15.8064 9.61617 15.8 9.61003L15.7942 9.60482C15.789 9.59991 15.7834 9.59531 15.7776 9.59102C15.7758 9.58922 15.7739 9.58775 15.7718 9.58625L15.7696 9.58458L15.7593 9.57738L15.7534 9.57353C15.7503 9.57139 15.7472 9.56955 15.7439 9.56801C15.7384 9.56464 15.7328 9.56127 15.7273 9.55851L15.7236 9.5567L15.7175 9.5539C15.7117 9.55114 15.7058 9.54838 15.6997 9.54624L15.6896 9.54256C15.6835 9.54041 15.6773 9.53826 15.6709 9.53673L15.6653 9.53511L15.6601 9.53366L15.6424 9.52967L15.6292 9.52814L15.6246 9.52731L15.6167 9.52641L15.6126 9.52599L15.6019 9.52531L15.5966 9.52507L15.5856 9.52446H14.4636C14.2915 9.52446 14.1517 9.66402 14.1517 9.83547V16.8073C14.1517 16.979 14.2915 17.1183 14.4636 17.1183H15.5856C15.758 17.1183 15.8975 16.979 15.8975 16.8073V12.6665L19.0963 16.9867C19.1184 17.018 19.1457 17.0434 19.1755 17.0637L19.1785 17.0661L19.1979 17.0778C19.2009 17.0796 19.2037 17.0809 19.2068 17.0824C19.2114 17.0852 19.2166 17.0876 19.2215 17.0898L19.2368 17.0962L19.246 17.0996C19.2534 17.1023 19.2601 17.1045 19.2672 17.1066C19.2687 17.1066 19.2703 17.1072 19.2718 17.1075C19.2972 17.1143 19.3239 17.1183 19.3515 17.1183H20.4738C20.6462 17.1183 20.7855 16.979 20.7855 16.8073V9.83547C20.7855 9.66402 20.6462 9.52446 20.4738 9.52446H19.3515ZM26.9826 10.9585V9.83621C26.9826 9.66414 26.8436 9.52428 26.6716 9.52428H22.1876C22.1035 9.52428 22.0278 9.55802 21.9717 9.61231L21.9701 9.6137L21.968 9.61568L21.9631 9.6212C21.9097 9.67703 21.8766 9.75248 21.8766 9.83591V16.8071C21.8766 16.8908 21.91 16.9666 21.9637 17.0224C21.9649 17.0239 21.9664 17.0258 21.968 17.027C21.9692 17.0285 21.971 17.0301 21.9726 17.0313C22.0284 17.085 22.1042 17.1184 22.1876 17.1184H26.6716C26.8436 17.1184 26.9826 16.9785 26.9826 16.8068V15.6842C26.9826 15.5124 26.8436 15.3725 26.6716 15.3725H23.6224V14.1941H26.6716C26.8436 14.1941 26.9826 14.0546 26.9826 13.8825V12.7602C26.9826 12.5881 26.8436 12.4483 26.6716 12.4483H23.6224V11.2701H26.6716C26.8436 11.2701 26.9826 11.1309 26.9826 10.9585Z" fill="#06C755"/>
</svg>
