<?xml version="1.0" encoding="UTF-8"?>
<svg xmlns="http://www.w3.org/2000/svg" version="1.1" viewBox="0 0 11 14">
  <defs>
    <style>
      .cls-1 {
        fill-rule: evenodd;
      }
    </style>
  </defs>
  <!-- Generator: Adobe Illustrator 28.7.3, SVG Export Plug-In . SVG Version: 1.2.0 Build 164)  -->
  <g>
    <g id="Layer_1">
      <path class="cls-1" d="M.1.6c.2-.2.5-.2.7,0l6,6c.2.2.2.5,0,.7L.9,13.4c-.2.2-.5.2-.7,0-.2-.2-.2-.5,0-.7l5.6-5.6L.1,1.4C0,1.2,0,.8.1.6Z"/>
      <path class="cls-1" d="M4.1.6c.2-.2.5-.2.7,0l6,6c.2.2.2.5,0,.7l-6,6c-.2.2-.5.2-.7,0-.2-.2-.2-.5,0-.7l5.6-5.6L4.1,1.4c-.2-.2-.2-.5,0-.7Z"/>
    </g>
  </g>
</svg>