<svg width="16" height="17" viewBox="0 0 16 17" fill="none" xmlns="http://www.w3.org/2000/svg">
<path d="M8.00028 0.0664062L9.66898 0.930701L11.527 1.2123L12.369 2.89237L13.7066 4.2123L13.4003 6.06641L13.7066 7.92051L12.369 9.24045L11.527 10.9205L9.66898 11.2021L8.00028 12.0664L6.33159 11.2021L4.47357 10.9205L3.63159 9.24045L2.29395 7.92051L2.60028 6.06641L2.29395 4.2123L3.63159 2.89237L4.47357 1.2123L6.33159 0.930701L8.00028 0.0664062Z" fill="#FF783E"/>
<path d="M4.00028 11.8602V16.0664L8.00028 15.0664L12.0003 16.0664V11.8602L9.98217 12.1661L8.00027 13.1926L6.01838 12.1661L4.00028 11.8602Z" fill="#FF783E"/>
</svg>
