<svg width="220" height="46" viewBox="0 0 220 46" fill="none" xmlns="http://www.w3.org/2000/svg">
<path d="M124.018 17.8214C124.018 20.316 121.993 22.341 119.498 22.341C117.003 22.341 114.979 20.316 114.979 17.8214C114.979 15.3267 117.003 13.3018 119.498 13.3018C121.993 13.3018 124.018 15.3267 124.018 17.8214Z" fill="#073774"/>
<path d="M137.079 38.0706C136.117 35.7994 134.744 33.7563 132.993 32.005C132.455 31.4668 131.885 30.9606 131.292 30.4954C131.442 30.354 131.593 30.2081 131.743 30.0621C133.33 28.475 134.58 26.6234 135.451 24.5574C136.354 22.4185 136.815 20.1518 136.815 17.8168C136.815 15.4817 136.354 13.2151 135.451 11.0761C134.58 9.01473 133.33 7.16311 131.743 5.57144C130.156 3.98434 128.304 2.73472 126.243 1.86363C124.104 0.960626 121.837 0.5 119.502 0.5C117.167 0.5 114.901 0.960626 112.762 1.86363C110.7 2.73472 108.849 3.98434 107.257 5.57144C105.67 7.15855 104.42 9.01017 103.549 11.0761C102.646 13.2151 102.186 15.4817 102.186 17.8168H110.901C110.901 13.0783 114.759 9.21996 119.498 9.21996C124.236 9.21996 128.095 13.0783 128.095 17.8168C128.095 22.5553 124.236 26.4136 119.498 26.4136C116.926 26.4136 114.422 26.9198 112.068 27.9141C109.797 28.8764 107.754 30.2491 106.003 32.0004C104.252 33.7517 102.874 35.7903 101.916 38.0661C100.922 40.4194 100.416 42.9232 100.416 45.4954H109.131C109.131 39.7809 113.783 35.129 119.498 35.129C125.212 35.129 129.864 39.7809 129.864 45.4954H138.58C138.58 42.9186 138.073 40.4194 137.079 38.0661V38.0706Z" fill="#008DCF"/>
<path d="M141.357 37.8159H152.467C152.659 37.8159 152.805 37.7657 152.901 37.6699C152.996 37.5605 153.046 37.4465 153.046 37.3279C153.046 37.1819 152.996 37.0634 152.901 36.9676C152.805 36.8718 152.659 36.8217 152.467 36.8217H150.625C146.68 36.8217 143.893 35.6131 142.256 33.1959C141.294 31.9326 140.815 30.4185 140.815 28.649C140.801 27.2899 141.216 25.9855 142.06 24.7359C143.816 22.15 146.807 20.8594 151.044 20.8594H162.514L164.174 28.1291H153.188C152.996 28.1291 152.85 28.1792 152.755 28.275C152.659 28.3708 152.609 28.4848 152.609 28.617C152.609 28.763 152.659 28.8816 152.755 28.9773C152.85 29.0731 152.996 29.1233 153.188 29.1233H155.026C158.971 29.1233 161.762 30.2133 163.395 32.3887C164.357 33.6383 164.836 35.2938 164.836 37.3461C164.849 38.7052 164.434 40.0096 163.591 41.2592C161.835 43.8451 158.843 45.1357 154.606 45.1357H143.027L141.348 37.8113L141.357 37.8159Z" fill="#073774"/>
<path d="M181.451 20.9004C184.178 20.9004 186.513 21.8034 188.451 23.6049C190.376 25.42 191.338 27.6045 191.338 30.154C191.338 32.7034 190.389 34.897 188.488 36.703C186.577 38.5182 184.242 39.4258 181.487 39.4258H176.671V45.1448H166.318V20.9004H181.451ZM178.477 31.8824C179.198 31.8824 179.804 31.6955 180.297 31.3215C180.803 30.9612 181.054 30.5142 181.054 29.9852C181.054 29.4562 180.803 29.0275 180.297 28.6672C179.791 28.2932 179.179 28.1062 178.459 28.1062H176.676V31.8779H178.482L178.477 31.8824Z" fill="#073774"/>
<path d="M208.782 45.5002H203.063C200.085 45.5002 197.622 44.0818 195.647 41.8562C193.554 39.4983 192.51 36.5613 192.51 33.0359C192.51 29.5105 193.545 26.5415 195.611 24.1974C197.558 21.9854 200.039 20.5352 203.059 20.5352H208.778C211.806 20.5352 214.278 21.9854 216.225 24.1974C218.296 26.5415 219.326 29.4877 219.326 33.0359C219.326 36.5841 218.282 39.4983 216.189 41.8562C214.218 44.0818 211.742 45.5002 208.773 45.5002H208.782ZM208.837 31.5218C208.837 30.7465 208.509 30.0897 207.989 29.5744C207.437 29.0316 206.748 28.7626 205.932 28.7626C205.115 28.7626 204.418 29.0316 203.875 29.5744C203.36 30.0806 203.008 30.7237 203.008 31.5218V34.5135C203.008 35.3071 203.355 35.9547 203.875 36.4609C204.418 37.0037 205.102 37.2727 205.932 37.2727C206.762 37.2727 207.432 37.0037 207.989 36.4609C208.504 35.9456 208.837 35.2934 208.837 34.5135V31.5218Z" fill="#073774"/>
<path d="M72.0723 20.8955H61.0675L58.7507 30.0214H58.5363H58.5318V30.0122L56.256 20.9001L56.2514 20.8955H45.2101L45.0322 21.1509L53.2505 37.4415V45.0806H64.0729V37.4415L72.2547 21.1509L72.0723 20.8955Z" fill="#073774"/>
<path d="M0 20.8955H11.4016L15.602 27.5905H15.675L19.8753 20.8955H31.2769V45.0761H20.7418V40.8392C20.7418 40.26 21.0656 37.0037 21.2481 35.3345L20.9927 35.298C20.377 36.3835 19.9072 37.3275 19.5789 37.8702L16.7193 42.7912H14.5485L11.6889 37.8702C11.3651 37.3275 10.8908 36.388 10.2751 35.298L10.0197 35.3345C10.2022 36.9992 10.526 40.26 10.526 40.8392V45.0761H0V20.8955Z" fill="#073774"/>
<path d="M43.623 20.8955V45.0761H33.0879V20.8955H43.623Z" fill="#073774"/>
<path d="M96.0154 44.8252L95.833 45.0806H85.0836L84.4314 41.8243H78.6758L78.0237 45.0806H67.2742L67.0918 44.8252L74.1517 20.8955H88.9556L96.0154 44.8252ZM81.2845 29.2233C80.9242 31.0338 80.4864 33.2777 80.0167 35.3756H83.0586C82.6254 33.2777 82.1921 31.0293 81.8273 29.2233H81.2845Z" fill="#073774"/>
<path d="M5.79199 8.57715H21.9504V10.6112H5.79199V8.57715ZM5.79199 12.2348H21.9504V14.2415H5.79199V12.2348ZM5.79199 16.1296H21.9504V18.0907H5.79199V16.1296Z" fill="#073774"/>
<path d="M25.3841 9.29728H27.3634L27.1172 8.30762H33.1007L33.347 9.29728H41.7705C43.5994 9.31096 44.361 10.0315 44.0554 11.4727L42.8925 16.0744H36.8314L38.0126 11.3176H33.8396L35.5726 18.0811H29.3793L27.8149 11.3176H25.375V9.29728H25.3841Z" fill="#073774"/>
<path d="M56.4836 10.6933H47.5675V8.57715H62.5037C63.7806 8.59083 64.8661 9.21108 63.3793 10.4561L59.3614 13.3795L64.9254 18.0815H58.4264L55.9318 15.8651L52.8853 18.0952H46.9199L56.4836 10.6979V10.6933Z" fill="#073774"/>
<path d="M67.5391 18.0814H72.1499L72.6059 12.335H68.0316L67.5391 18.0814Z" fill="#073774"/>
<path d="M79.8848 12.335L80.3408 18.0814H84.9516L84.4591 12.335H79.8848Z" fill="#073774"/>
<path d="M85.1341 7.45476C84.0532 7.45476 83.1775 8.26655 83.0498 9.31094H78.5895V8.3076H73.7689V9.31094H67.5391V11.2447H73.7689V18.0765H78.626V11.2447H83.8662C84.2174 11.5092 84.6552 11.6734 85.1295 11.6734C86.297 11.6734 87.2411 10.7293 87.2411 9.56178C87.2411 8.39425 86.297 7.4502 85.1295 7.4502L85.1341 7.45476ZM85.1341 10.1683C84.8011 10.1683 84.5275 9.89927 84.5275 9.56178C84.5275 9.22429 84.7966 8.95521 85.1341 8.95521C85.4715 8.95521 85.7406 9.22429 85.7406 9.56178C85.7406 9.89927 85.4715 10.1683 85.1341 10.1683Z" fill="#073774"/>
</svg>
