<svg width="222" height="46" viewBox="0 0 222 46" fill="none" xmlns="http://www.w3.org/2000/svg">
<path d="M125.468 17.499C125.468 20.0133 123.429 22.0527 120.914 22.0527C118.4 22.0527 116.36 20.0133 116.36 17.499C116.36 14.9848 118.4 12.9453 120.914 12.9453C123.429 12.9453 125.468 14.9848 125.468 17.499Z" fill="white"/>
<path d="M138.628 37.9022C137.659 35.6145 136.275 33.5557 134.51 31.7903C133.968 31.2486 133.394 30.7371 132.796 30.2688C132.947 30.1263 133.101 29.9796 133.252 29.8328C134.851 28.2336 136.111 26.369 136.988 24.2864C137.898 22.1304 138.362 19.847 138.362 17.4946C138.362 15.1422 137.898 12.8589 136.988 10.7029C136.109 8.62675 134.851 6.75994 133.252 5.15642C131.652 3.55723 129.785 2.29902 127.709 1.42065C125.553 0.509903 123.27 0.0458984 120.917 0.0458984C118.565 0.0458984 116.281 0.509903 114.125 1.42065C112.047 2.29902 110.182 3.55723 108.579 5.15642C106.979 6.75562 105.719 8.62027 104.843 10.7029C103.932 12.8589 103.47 15.1422 103.47 17.4946H112.252C112.252 12.7208 116.139 8.83177 120.915 8.83177C125.691 8.83177 129.578 12.7186 129.578 17.4946C129.578 22.2706 125.689 26.1575 120.915 26.1575C118.323 26.1575 115.8 26.6668 113.428 27.6704C111.141 28.6394 109.082 30.0227 107.316 31.7881C105.551 33.5535 104.163 35.6059 103.198 37.9C102.197 40.2719 101.688 42.7947 101.688 45.3867H110.469C110.469 39.6287 115.157 34.9412 120.915 34.9412C126.673 34.9412 131.361 39.6287 131.361 45.3867H140.143C140.143 42.7904 139.631 40.2719 138.63 37.9V37.9044L138.628 37.9022Z" fill="white"/>
<path d="M142.932 37.6471H154.127C154.321 37.6471 154.468 37.5975 154.565 37.5004C154.66 37.3903 154.712 37.2759 154.712 37.1551C154.712 37.0083 154.662 36.8896 154.565 36.7925C154.468 36.6954 154.321 36.6458 154.127 36.6458H152.271C148.295 36.6458 145.488 35.4285 143.839 32.992C142.87 31.7187 142.386 30.1928 142.386 28.4102C142.371 27.0398 142.79 25.7255 143.64 24.4672C145.41 21.8623 148.423 20.561 152.692 20.561H164.249L165.922 27.8858H154.852C154.658 27.8858 154.511 27.9354 154.416 28.0325C154.319 28.1296 154.269 28.244 154.269 28.3778C154.269 28.5246 154.319 28.6454 154.416 28.7404C154.511 28.8375 154.66 28.8872 154.852 28.8872H156.704C160.679 28.8872 163.491 29.9857 165.136 32.1784C166.105 33.4366 166.589 35.1048 166.589 37.1745C166.601 38.5449 166.183 39.8593 165.335 41.1175C163.565 43.7224 160.55 45.0237 156.281 45.0237H144.613L142.921 37.6428L142.93 37.6471H142.932Z" fill="white"/>
<path d="M183.341 20.6005C186.088 20.6005 188.441 21.5113 190.394 23.3263C192.334 25.1542 193.303 27.3556 193.303 29.9259C193.303 32.4963 192.347 34.7041 190.431 36.5256C188.506 38.3535 186.153 39.2686 183.376 39.2686H178.522V45.0309H168.089V20.6027H183.337L183.341 20.6005ZM180.343 31.6676C181.071 31.6676 181.681 31.4798 182.178 31.1021C182.687 30.7396 182.94 30.2885 182.94 29.7554C182.94 29.2224 182.687 28.7907 182.178 28.4282C181.668 28.0505 181.051 27.8627 180.326 27.8627H178.53V31.6633H180.35L180.345 31.6676H180.343Z" fill="white"/>
<path d="M210.876 45.3898H205.113C202.113 45.3898 199.631 43.9611 197.641 41.7188C195.533 39.3427 194.479 36.3838 194.479 32.8315C194.479 29.2792 195.522 26.2879 197.605 23.9248C199.566 21.6954 202.066 20.2343 205.109 20.2343H210.871C213.923 20.2343 216.414 21.6954 218.375 23.9248C220.462 26.2858 221.501 29.2554 221.501 32.8315C221.501 36.4076 220.449 39.3427 218.339 41.7188C216.353 43.9611 213.858 45.3898 210.867 45.3898H210.876ZM210.932 31.3035C210.932 30.5223 210.601 29.8597 210.077 29.3417C209.52 28.7957 208.827 28.5238 208.005 28.5238C207.183 28.5238 206.479 28.7957 205.933 29.3417C205.415 29.8511 205.059 30.5007 205.059 31.3035V34.3185C205.059 35.1191 205.409 35.7709 205.933 36.2802C206.481 36.8262 207.17 37.0982 208.005 37.0982C208.84 37.0982 209.516 36.8262 210.077 36.2802C210.595 35.7601 210.932 35.104 210.932 34.3185V31.3035Z" fill="white"/>
<path d="M73.1226 20.5956H62.0337L59.6985 29.7915H59.4783V29.7829L57.1841 20.6021L57.1798 20.5977H46.0541L45.875 20.8546L54.1561 37.2695V44.9677H65.0617V37.2695L73.3061 20.8546L73.1226 20.5977V20.5956Z" fill="white"/>
<path d="M0.5 20.5956H11.9883L16.2205 27.342H16.2939L20.5262 20.5956H32.0145V44.9612H21.3981V40.6924C21.3981 40.1097 21.724 36.8271 21.9075 35.1459L21.6507 35.1092C21.0312 36.2034 20.5564 37.1552 20.2262 37.7012L17.345 42.6585H15.1565L12.2753 37.7012C11.9494 37.1552 11.4703 36.2077 10.8509 35.1092L10.594 35.1459C10.7775 36.8228 11.1034 40.1097 11.1034 40.6924V44.9612H0.5V20.5956Z" fill="white"/>
<path d="M44.462 20.5956V44.9613H33.8457V20.5956H44.462Z" fill="white"/>
<path d="M97.2443 44.7095L97.0609 44.9664H86.2287L85.5705 41.686H79.7713L79.1152 44.9664H68.2831L68.0996 44.7095L75.2131 20.5986H90.1308L97.2443 44.7095ZM82.4022 28.9873C82.0396 30.811 81.5972 33.0727 81.1245 35.1856H84.1892C83.7533 33.0727 83.3151 30.8067 82.9482 28.9873H82.4022Z" fill="white"/>
<path d="M6.32617 8.18451H22.6079V10.2348H6.32617V8.18451ZM6.32617 11.8706H22.6079V13.8928H6.32617V11.8706ZM6.32617 15.7942H22.6079V17.7711H6.32617V15.7942Z" fill="white"/>
<path d="M26.0809 8.90912H28.0751L27.8269 7.91205H33.857L34.1052 8.90912H42.5935C44.4366 8.92207 45.2028 9.64937 44.8964 11.1018L43.7244 15.7375H37.6166L38.8058 10.9443H34.6016L36.3476 17.7597H30.106L28.5305 10.9443H26.0723V8.90912H26.0809Z" fill="white"/>
<path d="M57.4099 10.3168H48.4252V8.18451H63.4746C64.7609 8.19746 65.8551 8.82332 64.3573 10.0772L60.3084 13.0231L65.9155 17.7603H59.3674L56.8531 15.5266L53.7841 17.7732H47.7734L57.4099 10.3189V10.3146V10.3168Z" fill="white"/>
<path d="M68.5547 17.7595H73.2014L73.6611 11.9692H69.0511L68.5547 17.7595Z" fill="white"/>
<path d="M80.998 11.9716L81.4578 17.762H86.1044L85.608 11.9716H80.998Z" fill="white"/>
<path d="M86.2846 7.05314C85.1946 7.05314 84.3119 7.87109 84.1846 8.92427H79.6912V7.91425H74.833V8.92427H68.5547V10.8731H74.833V17.7576H79.7278V10.8731H85.009C85.363 11.1385 85.8033 11.3047 86.2824 11.3047C87.4586 11.3047 88.4104 10.353 88.4104 9.17677C88.4104 8.00058 87.4586 7.04883 86.2824 7.04883L86.2867 7.05314H86.2846ZM86.2846 9.78753C85.95 9.78753 85.6738 9.5156 85.6738 9.17677C85.6738 8.83794 85.9457 8.56601 86.2846 8.56601C86.6234 8.56601 86.8953 8.83794 86.8953 9.17677C86.8953 9.5156 86.6234 9.78753 86.2846 9.78753Z" fill="white"/>
</svg>
