<svg width="16" height="16" viewBox="0 0 16 16" fill="none" xmlns="http://www.w3.org/2000/svg">
<path d="M5.07166 0.559897C6.15738 0.265587 7.31051 0.000244141 8 0.000244141C8.68949 0.000244141 9.84262 0.265587 10.9283 0.559897C12.0384 0.860811 13.1568 1.21485 13.8147 1.42953C14.3637 1.60868 14.779 2.09383 14.8588 2.69234C15.4554 7.16966 14.072 10.4871 12.394 12.6822C11.5582 13.7757 10.6498 14.5906 9.87691 15.1356C9.49076 15.4079 9.13287 15.6168 8.82896 15.7599C8.54814 15.892 8.24771 16.0002 8 16.0002C7.7523 16.0002 7.45186 15.892 7.17105 15.7599C6.86713 15.6168 6.50924 15.4079 6.12309 15.1356C5.35024 14.5906 4.44183 13.7757 3.606 12.6822C1.92804 10.4871 0.544608 7.16966 1.14123 2.69234C1.22098 2.09383 1.63625 1.60868 2.18528 1.42953C2.84316 1.21485 3.96156 0.860811 5.07166 0.559897Z" fill="white"/>
</svg>
