<svg width="16" height="17" viewBox="0 0 16 17" fill="none" xmlns="http://www.w3.org/2000/svg">
<path d="M2 1.66699C1.44772 1.66699 1 2.11471 1 2.66699V7.25278C1 7.51799 1.10536 7.77235 1.29289 7.95988L8.29289 14.9599C8.68342 15.3504 9.31658 15.3504 9.70711 14.9599L14.2929 10.3741C14.6834 9.98357 14.6834 9.35041 14.2929 8.95989L7.29289 1.95989C7.10536 1.77235 6.851 1.66699 6.58579 1.66699H2ZM6 5.16699C6 5.99542 5.32843 6.66699 4.5 6.66699C3.67157 6.66699 3 5.99542 3 5.16699C3 4.33857 3.67157 3.66699 4.5 3.66699C5.32843 3.66699 6 4.33857 6 5.16699Z" fill="#FF783E"/>
</svg>
